<?xml version="1.0" encoding="UTF-8" standalone="no"?>
<!-- Created with Inkscape (http://www.inkscape.org/) -->

<svg
   xmlns:dc="http://purl.org/dc/elements/1.1/"
   xmlns:cc="http://creativecommons.org/ns#"
   xmlns:rdf="http://www.w3.org/1999/02/22-rdf-syntax-ns#"
   xmlns:svg="http://www.w3.org/2000/svg"
   xmlns="http://www.w3.org/2000/svg"
   xmlns:sodipodi="http://sodipodi.sourceforge.net/DTD/sodipodi-0.dtd"
   xmlns:inkscape="http://www.inkscape.org/namespaces/inkscape"
   id="svg3107"
   version="1.1"
   inkscape:version="0.48.4 r9939"
   width="900"
   height="725"
   sodipodi:docname="Toothless How to Train your Dragon.svg">
  <metadata
     id="metadata3113">
    <rdf:RDF>
      <cc:Work
         rdf:about="">
        <dc:format>image/svg+xml</dc:format>
        <dc:type
           rdf:resource="http://purl.org/dc/dcmitype/StillImage" />
        <dc:title></dc:title>
      </cc:Work>
    </rdf:RDF>
  </metadata>
  <defs
     id="defs3111" />
  <sodipodi:namedview
     pagecolor="#ffffff"
     bordercolor="#666666"
     borderopacity="1"
     objecttolerance="10"
     gridtolerance="10"
     guidetolerance="10"
     inkscape:pageopacity="0"
     inkscape:pageshadow="2"
     inkscape:window-width="1366"
     inkscape:window-height="705"
     id="namedview3109"
     showgrid="false"
     inkscape:zoom="2.8284271"
     inkscape:cx="207.25937"
     inkscape:cy="365.40526"
     inkscape:window-x="-8"
     inkscape:window-y="-8"
     inkscape:window-maximized="1"
     inkscape:current-layer="svg3107" />
  <path
     style="fill:#000000"
     d="m 359.9126,693.96187 c -3.85,-1.3795 -11.2298,-3.5922 -16.3995,-4.917 -12.0662,-3.0922 -20.7811,-7.198 -25.4226,-11.9772 -4.073,-4.1938 -6.3292,-10.409 -4.8014,-13.2261 2.9442,-5.4286 16.1629,-14.2504 35.6235,-23.7743 30.9815,-15.162 54.7708,-22.1032 145.5,-42.4538 106.7071,-23.9344 155.3605,-39.1597 208,-65.0905 43.3151,-21.3374 68.3955,-40.9533 81.1075,-63.4356 l 3.3925,-6 -0.029,-13.5 c -0.027,-12.6925 -0.2315,-14.0899 -3.4137,-23.3626 -5.5652,-16.2172 -17.7375,-34.4045 -36.0799,-53.9093 -21.5625,-22.9289 -45.4001,-39.2434 -73.3419,-50.1955 l -11.8646,-4.6504 -1.6222,2.3089 -1.6222,2.3089 -0.5132,-2.9243 c -0.491,-2.7977 -1.0206,-3.0654 -12.2355,-6.1846 -6.4473,-1.7931 -13.7647,-3.5665 -16.2609,-3.9408 l -4.5386,-0.6806 -3.8991,8.3652 c -2.1445,4.6008 -5.3656,13.7246 -7.1579,20.2751 -3.7855,13.8353 -4.3477,13.4777 -5.3607,-3.41 -0.6989,-11.6509 -2.414,-28.1867 -2.9825,-28.7553 -0.1708,-0.1707 -5.8191,-0.9905 -12.5518,-1.8217 -14.1811,-1.7507 -13.8026,-1.9227 -16.6749,7.577 -1.4233,4.7077 -1.4981,6.6421 -0.5187,13.4283 0.6293,4.3606 0.9379,8.1345 0.6858,8.3866 -1.0342,1.0342 -8.5961,-16.6694 -10.2353,-23.9621 l -1.765,-7.8528 -8.6603,0 -8.6603,0 -2.1612,3.663 c -3.0736,5.2093 -5.3505,14.8401 -4.5411,19.2075 1.8546,10.007 10.9191,19.6224 24.2197,25.6915 8.2019,3.7427 15.526,10.1072 21.7933,18.938 4.9522,6.9779 10.5284,17.8606 12.8096,25 3.8084,11.9185 7.6532,42.4163 7.6714,60.85 l 0.011,10.85 -3.25,3.2255 c -2.3942,2.3761 -5.1879,3.7246 -10.6088,5.121 -8.2278,2.1193 -9.1412,3.2172 -9.1412,10.9872 0,5.6273 -1.6965,5.1728 -6.057,-1.6225 -3.4335,-5.3506 -4.3746,-5.6361 -14.1574,-4.2953 -4.3931,0.6022 -4.5302,0.7325 -6.1395,5.8379 -0.9054,2.8721 -1.6461,5.97 -1.6461,6.8841 0,4.5178 -4.042,-1.0017 -5.9488,-8.1235 l -1.1475,-4.2856 -9.6062,0.2856 -9.6063,0.2856 -3.4116,4.955 c -1.8764,2.7252 -3.6565,6.1795 -3.9559,7.6763 -0.3567,1.7837 -1.0203,2.5386 -1.9261,2.1911 -1.6506,-0.6334 -4.3976,-9.3529 -4.3976,-13.9586 0,-3.6066 -0.057,-3.6292 -12,-4.7926 -5.1503,-0.5017 -7.2192,-1.7286 -8.2798,-4.9106 -1.0179,-3.0535 -13.7202,6.9844 -13.7202,10.8423 0,0.8234 -0.45,1.4971 -1,1.4971 -1.6458,0 -1.0895,-7.2104 0.8872,-11.5 1.0139,-2.2 3.704,-6.094 5.9781,-8.6534 2.2741,-2.5594 4.1347,-5.0862 4.1347,-5.6152 0,-0.5289 0.8421,-2.0348 1.8714,-3.3465 1.0292,-1.3117 2.8596,-6.2099 4.0674,-10.8849 1.2079,-4.675 6.0531,-18.164 10.7671,-29.9755 7.8682,-19.7149 8.6105,-22.1744 9.0539,-30 0.6834,-12.061 -0.3152,-13.9211 -14.9694,-27.8809 -27.0657,-25.7833 -29.4,-28.3275 -32.7478,-35.6922 -4.302,-9.4639 -7.0426,-19.7817 -7.0426,-26.5139 0,-5.272 -0.2214,-5.7806 -3.75,-8.6157 -2.0625,-1.6571 -5.1,-3.7017 -6.75,-4.5435 -2.9739,-1.5173 -3.0586,-1.4836 -9.7271,3.8733 -7.8512,6.307 -17.8169,17.5542 -20.888,23.5741 -1.229,2.409 -2.3717,6.9691 -2.6664,10.6412 -0.7407,9.2276 0.9997,11.9833 10.7836,17.0734 8.88,4.6199 14.095,9.8687 17.8244,17.9397 2.9337,6.3492 3.9976,16.4757 2.3558,22.4221 -1.1299,4.0919 -0.387,4.6866 2.235,1.7893 2.2714,-2.5098 6.8089,-4.338 9.7377,-3.9234 3.671,0.5198 3.4351,3.9364 -0.6056,8.7729 -3.5332,4.229 -4.3324,7.2737 -2.6194,9.9801 0.7664,1.2109 1.2762,1.174 3.4495,-0.25 3.1186,-2.0435 4.6594,-2.0961 7.1794,-0.2452 1.8967,1.3931 1.8816,1.4902 -0.6623,4.25 -3.4406,3.7324 -4.0803,5.827 -2.7029,8.8501 0.987,2.1661 1.5877,2.4182 4.4732,1.8768 3.8183,-0.7163 4.1372,0.1417 1.7607,4.7373 -1.9258,3.724 -1.2911,5.8986 1.508,5.1666 1.9135,-0.5004 2.0146,-0.2226 1.4414,3.9593 -0.3982,2.9053 -0.066,6.2207 0.9387,9.3657 4.2691,13.3651 4.9691,25.6755 1.8596,32.705 -3.8614,8.7293 -14.1635,16.5072 -28.0665,21.1896 -5.6916,1.9169 -6.6564,2.6137 -7.73,5.5821 -0.6746,1.8654 -1.2609,4.4042 -1.3027,5.6417 -0.1499,4.4316 -3.0332,2.1803 -4.9888,-3.8952 l -1.1732,-3.6452 -10.113,-0.7238 c -9.8618,-0.7058 -10.1582,-0.665 -11.9348,1.6452 -1.002,1.303 -1.8318,3.1565 -1.8441,4.119 -0.06,4.7318 -3.9925,-2.0023 -4.0166,-6.8783 0,-0.6206 -1.6931,-1.5919 -3.7556,-2.1585 -2.0625,-0.5666 -5.19,-1.6115 -6.9499,-2.322 -2.8051,-1.1324 -3.4442,-1.0708 -5.1792,0.4994 -1.0886,0.9852 -2.7295,3.3721 -3.6463,5.3042 -2.3464,4.9447 -3.8481,2.9186 -3.2392,-4.3703 0.2676,-3.2035 0.8222,-6.612 1.2326,-7.5745 1.1945,-2.8021 -1.3469,-2.0911 -4.468,1.25 -1.5413,1.65 -3.1311,3 -3.5329,3 -1.2501,0 0.2651,-7.9423 2.0286,-10.6338 0.9217,-1.4067 2.9494,-3.2886 4.506,-4.1819 2.1943,-1.2594 2.9136,-2.4993 3.2015,-5.5184 l 0.3714,-3.8941 -5.0373,0.6104 c -2.7705,0.3357 -10.0357,0.902 -16.1449,1.2584 -9.2201,0.5379 -11.6678,0.3686 -14.4037,-0.9963 -1.8128,-0.9043 -3.9019,-1.6443 -4.6424,-1.6443 -0.7405,0 -1.3463,-0.45 -1.3463,-1 0,-1.9452 -4.8881,-0.965 -7.9233,1.5889 l -3.0767,2.5889 0,-2.8389 c 0,-1.5614 0.8637,-4.2492 1.9148,-5.973 1.89,-3.0995 7.9244,-8.3365 9.6758,-8.3973 1.4064,-0.049 4.1725,-4.303 6.2888,-9.672 4.1281,-10.4733 11.8546,-21.9359 20.6699,-30.6648 l 6.512,-6.4482 -2.5708,-6.3418 c -4.3145,-10.6433 -3.1525,-10.1061 -19.2416,-8.8955 -21.5599,1.6223 -46.1783,-0.4445 -54.966,-4.6145 -4.6267,-2.1955 -10.6512,-10.1626 -13.85,-18.3159 -1.4904,-3.7987 -3.4358,-7.2092 -4.3232,-7.579 -3.0766,-1.282 -20.5711,-1.6764 -24.6984,-0.5568 -9.9228,2.6918 -32.4729,22.3804 -37.9005,33.0912 -1.4755,2.9119 -4.6309,7.377 -7.0119,9.9225 -2.381,2.5455 -5.1823,6.8732 -6.225,9.6172 -3.7446,9.854 -16.4134,26.94 -25.9863,35.0466 -13.0664,11.0651 -30.0086,19.3484 -49.7914,24.3436 -6.0568,1.5294 -20.1864,3.0971 -29.0722,3.2255 -7.150602,0.1034 -8.417902,0.4331 -12.927802,3.3626 -6.1109,3.9697 -11.8199,6.8587 -16.6175,8.4093 -3.0391,0.9822 -4.1499,2.2179 -6.9463,7.7271 -2.997,5.9046 -3.4585,6.3804 -4.6324,4.7751 -0.7173,-0.9807 -1.304,-2.522 -1.304,-3.4252 0,-2.6058 -0.712,-2.7573 -6.2309,-1.3257 -2.8593,0.7417 -6.0125,1.0903 -7.0071,0.7746 -1.411,-0.4478 -2.2553,0.4364 -3.8424,4.0244 -2.4238,5.4793 -3.9196,5.0947 -3.9196,-1.0079 0,-3.589 -0.341,-4.441 -1.7775,-4.441 -0.9776,0 -2.7159,-0.6572 -3.8627,-1.4605 -1.887,-1.3217 -2.2822,-1.2504 -4.1559,0.75 -1.1389,1.2158 -2.5765,3.5453 -3.1947,5.1767 -0.8937,2.3582 -1.3141,2.6656 -2.0513,1.5 -1.2912,-2.0416 -1.1877,-9.6515 0.1671,-12.2819 0.6187,-1.2013 2.0471,-3.1968 3.1743,-4.4343 1.1271,-1.2375 1.621,-2.25 1.0975,-2.25 -1.282,0 -5.6178,3.0394 -7.065,4.9526 -1.5416,2.0378 -2.7286,0.7404 -1.9726,-2.156 1.1449,-4.3871 4.704,-8.925 8.1189,-10.3519 3.0605,-1.2787 3.6609,-2.1957 5.5161,-8.4251 2.4799,-8.3272 10.1068,-23.8053 16.5107,-33.5071 l 4.6123,-6.9875 -2.0586,-4.122 c -2.8052,-5.6169 -2.5895,-10.0144 0.9249,-18.8615 1.641,-4.1308 3.9113,-12.7726 5.0451,-19.2039 1.1339,-6.4313 3.3485,-14.8758 4.9214,-18.7655 2.1741,-5.3764 2.9927,-9.3499 3.414,-16.5721 1.8845,-32.3035 17.0242,-70.9191 35.884202,-91.5268 5.8854,-6.4308 14.5027,-11.8897 17.1593,-10.8703 1.9242,0.7384 3.0432,4.5674 2.2402,7.6656 -0.3181,1.2273 -1.2286,5.0539 -2.0234,8.5034 -0.7948,3.4495 -2.3855,8.0758 -3.5347,10.2808 -1.1493,2.2049 -2.0896,5.5652 -2.0896,7.4674 0,1.9022 -0.9119,5.8258 -2.0265,8.7192 -1.1146,2.8934 -2.4493,7.0967 -2.9661,9.3407 -0.5168,2.2439 -1.267,4.9439 -1.667,6 -0.4327,1.1422 1.4567,-0.037 4.6639,-2.9105 5.9797,-5.3579 12.4991,-9.0944 14.12,-8.0927 0.6824,0.4218 0.8269,3.1755 0.4087,7.7879 l -0.6469,7.1353 3.8931,-7.0104 c 2.1413,-3.8557 5.0684,-8.872 6.5047,-11.1473 2.3341,-3.6974 2.4985,-4.5463 1.5474,-7.9896 -1.521,-5.5063 -0.4955,-15.1305 2.1687,-20.3527 6.6337,-13.003 19.6967,-28.148 39.7526,-46.0884 4.5153,-4.039 6.2474,-6.2833 6.2474,-8.095 0,-8.5302 -17.5942,-11.2794 -41,-6.4065 -11.4947,2.393 -16.6582,3.8036 -42,11.4729 -12.452102,3.7685 -30.897902,7.9472 -42.141902,9.5468 -4.0236,0.5724 -5.0217,0.3336 -7.4939,-1.7929 l -2.852,-2.4532 2.1983,-4.5248 c 3.1128,-6.407 13.1502,-16.6976 32.7895,-33.6165 34.046102,-29.3302 54.036102,-45.0302 72.665502,-57.0709 7.1925,-4.6488 24.9984,-11.775796 48.8345,-19.546596 9.625,-3.1378 20.875,-7.2076 25,-9.044 19.3089,-8.5961 58.6621,-18.8148 86.5,-22.4612 13.4435,-1.7609 39.137,0.2979 57.1923,4.5829 15.565,3.6939 19.4137,4.3213 32.8077,5.3478 8.3622,0.6409 20.9429,2.9004 41.5,7.4535 16.225,3.5936 36.8084,7.9994 45.741,9.7907 8.9325,1.7912 16.0154,3.4823 15.7397,3.7581 -0.2757,0.2757 -3.5342,0.6583 -7.241,0.8504 -8.8054,0.4561 -19.7363,2.208 -24.6968,3.9582 -6.2589,2.2083 -13.2214,7.1484 -14.5311,10.310196 -2.1693,5.2371 1.9811,9.7075 22.9882,24.761 4.675,3.3501 10.075,7.7481 12,9.7735 2.0997,2.2092 8.2105,6.0531 15.2743,9.6081 l 11.7744,5.9258 13.7256,-3.1224 c 42.4811,-9.6639 78.7797,-23.6349 103.5581,-39.8587 5.9578,-3.901 12.05,-7.7223 13.5383,-8.4919 3.0347,-1.569296 13.1293,-3.630096 13.1293,-2.680396 -10e-5,0.3375 -1.5248,1.830096 -3.3883,3.316996 -6.4232,5.1251 -10.2149,17.8356 -5.7439,19.2546 3.2206,1.0222 17.0311,-4.1928 33.1322,-12.5109 44.4772,-22.977796 55.9106,-26.920796 31,-10.690896 -11.2318,7.317796 -25.4499,21.168396 -32.2732,31.438996 -7.7757,11.7043 -9.6157,19.4158 -5.5926,23.4389 1.9069,1.907 2.8917,2.0738 9.25,1.567 3.9137,-0.3119 11.3856,-1.69 16.6042,-3.0624 5.2187,-1.3724 9.6415,-2.3422 9.8285,-2.1552 0.8562,0.8562 -10.8093,6.5694 -34.0553,16.6787 -30.3645,13.2049 -68.3695,29.2874 -71.587,30.2933 -1.2789,0.3999 -2.1408,0.9116 -1.9152,1.1372 0.2256,0.2255 5.997,1.9419 12.8253,3.8142 22.811,6.2545 47.2758,16.9464 73.4153,32.085 44.9006,26.004 73.4028,49.1708 93.5129,76.008 33.0051,44.046 54.6847,87.5047 63.1257,126.5416 3.2385,14.9768 3.2537,42.6767 0.03,54.4584 -7.7584,28.3547 -27.1322,49.9603 -56.0422,62.4979 -25.6262,11.1135 -50.9319,16.9565 -136.6264,31.5466 -53.043,9.031 -165.8562,30.0559 -193.044,35.9775 -65.7406,14.3185 -112.8193,28.2257 -126.3093,37.3122 -2.3033,1.5514 0.3675,4.8131 5.5918,6.8288 8.0873,3.1202 18.1193,2.4434 37.2615,-2.5139 47.1177,-12.2023 65.6067,-19.2114 83.8232,-31.777 5.3222,-3.6712 10.6925,-7.5883 11.934,-8.7047 2.225,-2.0006 2.2776,-2.002 3.6698,-0.099 1.3289,1.817 2.7329,1.9219 23.7427,1.7744 34.3627,-0.2412 53.1334,-3.588 72.5826,-12.9413 6.1888,-2.9762 12.9933,-6.9842 15.1212,-8.9066 2.1279,-1.9224 4.0751,-3.4953 4.3271,-3.4953 0.252,0 0.5102,2.2817 0.5737,5.0705 0.1421,6.2403 3.2278,12.9088 7.0058,15.1406 10.3312,6.1027 39.7503,0.1163 58.5675,-11.9178 3.7662,-2.4086 6.6675,-4.0225 6.4473,-3.5863 -3.4666,6.8658 -3.7972,8.3984 -2.7276,12.646 2.9769,11.8226 26.147,31.1271 42.7145,35.5883 2.32,0.6247 4.2182,1.502 4.2182,1.9495 0,0.4476 -10.4625,1.0871 -23.25,1.4212 -41.5354,1.0852 -67.7265,4.6614 -144.25,19.6961 -75.9677,14.9256 -115.7769,19.9294 -159.3296,20.027 -9.7597,0.022 -18.1222,0.5745 -22.1704,1.4649 -8.1193,1.7859 -7.1854,1.8537 -15.5,-1.1255 z"
     id="path3298"
     inkscape:connector-curvature="0" />
  <path
     style="fill:#d40000"
     d="M 605.84375 604.34375 C 604.81188 604.50967 602.07896 607.09744 595.15625 614 C 579.91015 629.20172 546.81995 654.24114 523.375 668.90625 C 523.35937 668.91603 523.32812 668.89648 523.3125 668.90625 C 523.3125 668.90625 523.18941 669.00621 523.15625 669.03125 C 522.43112 669.48398 521.73683 669.88044 521.03125 670.3125 C 520.12389 670.73977 519.19417 670.97077 518.78125 670.40625 C 518.40449 669.89117 519.46039 669.01369 520 668.59375 C 520.02109 668.57734 520.01178 668.57738 520.03125 668.5625 C 530.59971 662.11232 543.11526 653.33738 559 641.34375 C 582.753 623.4092 596.04375 612.33416 598.78125 608.15625 L 600.53125 605.5 L 596.34375 608.125 C 577.53975 619.99544 520.9707 635.37433 504.25 633.15625 C 495.8425 632.04095 494.09545 630.55894 501.96875 631.21875 C 510.09045 631.89937 526.02915 629.81598 540.40625 626.1875 L 549.90625 623.78125 L 540.90625 624.4375 C 525.68615 625.54415 494.14175 625.22086 491.96875 623.9375 C 490.23705 622.91474 489.00195 623.85904 481.03125 632.28125 C 464.76825 649.4654 427.0973 675.60824 402.4375 686.84375 L 393.90625 690.71875 L 415.40625 690.1875 C 427.23125 689.88468 443.43125 688.93252 451.40625 688.09375 C 464.55399 686.71095 474.42349 685.41974 481.75 684.15625 L 502.46875 681.1875 C 502.51084 681.24083 502.64844 681.23722 502.90625 681.1875 C 503.00596 681.16827 504.53482 680.87883 504.71875 680.84375 L 505.59375 680.71875 L 538.78125 674.59375 L 554.4375 671.40625 C 562.49871 669.84071 569.04976 668.52427 574.28125 667.40625 L 574.625 667.34375 L 604.28125 661.96875 L 622.0625 658.875 L 621.96875 658.8125 C 652.96609 654.04907 683.76747 651.06161 701.125 651.21875 L 715.34375 651.34375 L 708.625 648.125 C 704.9297 646.35118 698.5212 642.20493 694.375 638.90625 C 681.5404 628.69511 675.40675 620.149 675.09375 612.0625 C 675.00187 609.68764 674.66429 608.38735 674.15625 608.4375 C 674.08367 608.44466 673.98539 608.4688 673.90625 608.53125 C 653.25615 624.82528 634.92585 638.37644 619.40625 648.78125 C 616.54901 650.69683 614.48002 652.11073 612 653.78125 L 611.84375 653.6875 C 611.84375 653.6875 609.75662 655.21165 609.09375 654.53125 C 608.71687 654.14441 609.22875 653.22329 609.5625 652.71875 C 620.85375 645.34364 635.56606 635.14241 646.90625 626.625 C 665.06705 612.9847 665.0785 612.95866 659.1875 615.5625 C 647.7268 620.62816 627.51235 623.77067 619.78125 621.6875 C 617.51555 621.077 614.42215 619.59865 612.90625 618.40625 C 609.74755 615.92161 606.4698 609.34394 606.4375 605.4375 C 606.43125 604.69368 606.31278 604.26833 605.84375 604.34375 z M 636.90625 626.78125 C 637.32981 626.7595 637.10475 626.96939 636.28125 627.5 C 633.75365 629.12867 622.73395 631.36663 614.40625 631.9375 C 607.16915 632.43361 607.09905 632.40424 612.40625 631.46875 C 621.91955 629.79186 632.80885 627.70795 635.40625 627.0625 C 636.15839 626.8756 636.65212 626.7943 636.90625 626.78125 z M 541.28125 644.6875 C 541.60501 644.72083 541.20924 645.06598 540.03125 645.75 C 528.30125 652.56138 492.86945 660.60921 486.40625 657.9375 C 484.26475 657.05226 481.40625 654.45422 481.40625 653.375 C 481.40625 652.87033 482.6134 653.36011 484.0625 654.5 C 488.1591 657.72238 497.543 657.30356 513.625 653.15625 C 520.9361 651.27081 529.9625 648.57081 533.6875 647.15625 C 538.16263 645.45686 540.74166 644.63195 541.28125 644.6875 z "
     id="path3292" />
  <path
     style="fill:#241f1c"
     d="M 394.34375 110.5 C 366.35115 110.582 358.1336 113.41263 327.875 133.375 C 301.1228 151.02409 247.56385 194.1042 224.15625 216.78125 C 217.44885 223.27937 211.37385 228.68216 210.65625 228.78125 C 209.93875 228.88035 212.71875 229.21784 216.84375 229.53125 L 224.34375 230.09375 L 224.65625 234.84375 C 224.83955 237.70088 224.54065 239.59375 223.90625 239.59375 C 222.90395 239.59375 222.42725 237.57012 222.78125 234.84375 C 223.08515 232.50354 221.0243 233.5695 216.4375 238.15625 C 213.9191 240.67467 211.84375 242.1877 211.84375 241.5 C 211.84375 240.8123 213.95305 238.22039 216.53125 235.75 L 221.21875 231.25 L 209.65625 231.875 C 199.23585 232.43344 188.84375 234.1181 188.84375 235.25 C 188.84375 235.48702 189.57265 237.11087 190.46875 238.84375 L 192.09375 242 L 194.4375 239.28125 C 197.7166 235.46911 198.84375 235.91304 198.84375 241 C 198.84375 243.43002 199.15325 246.24252 199.53125 247.25 C 200.12645 248.8364 199.99925 248.92364 198.59375 247.78125 C 197.70115 247.05575 196.6742 245.11563 196.3125 243.46875 C 195.7265 240.8008 195.5401 240.6483 194.4375 242.15625 C 193.4031 243.5708 194.00835 245.67365 198.15625 254.96875 C 207.02815 274.85061 211.6599 299.06884 210.5625 319.90625 L 209.96875 330.75 L 212.4375 328.09375 C 215.5358 324.75064 217.67945 325.16472 220.28125 329.59375 C 222.02455 332.56122 222.34375 334.79713 222.34375 344.34375 C 222.34375 352.50239 222.6814 355.59325 223.5625 355.59375 C 225.6202 355.59475 227.1408 359.72683 227.25 365.65625 L 227.34375 371.3125 L 233.25 364.90625 C 236.4872 361.37596 243.4622 355.29523 248.75 351.40625 C 254.0378 347.51727 260.93125 341.57898 264.09375 338.21875 C 270.60395 331.30155 271.79975 331.94279 266.03125 339.25 L 262.21875 344.09375 L 274.53125 344.09375 C 281.30765 344.10075 286.84375 344.08135 286.84375 344.03125 C 286.84375 343.98115 285.66335 341.03232 284.21875 337.5 C 282.77415 333.96768 280.28075 326.59375 278.65625 321.09375 C 277.03175 315.59375 275.4425 310.236 275.125 309.1875 C 274.7403 307.91707 274.9293 307.50016 275.6875 307.96875 C 276.3132 308.35548 278.46135 313.93823 280.46875 320.375 C 283.91775 331.43482 289.61565 346.01786 295.53125 358.8125 C 302.46765 373.81498 312.13255 376.31765 357.96875 375.125 C 372.60835 374.74408 386.22085 374.75017 388.21875 375.125 C 394.62305 376.32646 392.0941 377.46352 384.3125 376.875 L 376.78125 376.28125 L 380.25 383.53125 C 384.6282 392.66715 387.17125 403.5698 389.90625 425.09375 C 391.51905 437.78546 391.89135 444.56468 391.40625 451.84375 C 390.76075 461.52861 390.7821 461.59479 393.0625 461.625 C 395.2786 461.6543 395.27425 461.6941 393.34375 462.75 C 390.76235 464.16192 388.84375 466.58458 388.84375 468.4375 C 388.84375 469.62388 389.21375 469.57484 390.78125 468.15625 C 391.84505 467.19354 394.18155 466.33504 395.96875 466.25 C 398.52515 466.12836 399.5546 466.65973 400.75 468.75 C 402.0753 471.06749 402.08265 471.7701 400.84375 474.25 C 400.06225 475.8137 399.2623 477.43463 399.0625 477.84375 C 398.6941 478.59781 401.93075 480.06422 406.40625 481.1875 C 408.63565 481.74704 408.84375 481.50404 408.84375 478.5625 C 408.84375 474.66786 412.1666 468.94193 414.9375 468.0625 C 417.4991 467.24946 421.65875 469.9375 422.90625 473.21875 C 424.24765 476.74685 424.1511 477.0522 421.25 480.5 L 418.6875 483.59375 L 427.65625 483.59375 C 436.46315 483.59375 436.6671 483.54665 436.1875 481.34375 C 435.9181 480.10625 435.2022 478.10665 434.625 476.90625 C 434.0479 475.70585 433.93165 473.90585 434.34375 472.90625 C 434.88145 471.60222 435.2107 471.45904 435.5625 472.40625 C 435.916 473.35812 436.4545 473.1489 437.5 471.65625 C 441.354 466.1539 448.78965 471.7819 447.40625 479.15625 L 446.78125 482.5 L 452.125 480.65625 C 464.889 476.26478 475.0483 468.25621 478.625 459.78125 C 480.3541 455.68418 480.51155 454.12914 479.71875 447.59375 C 478.45925 437.20999 475.7057 427.70894 470.4375 415.375 C 464.1693 400.69962 464.11015 400.23952 467.34375 396 C 470.65985 391.65236 469.96655 390.67347 465.21875 392.9375 C 461.19265 394.85745 459.3762 394.08965 457.75 389.8125 C 456.7118 387.08172 458.762 382.36826 462.5 378.875 C 465.8808 375.71562 465.52655 374.29625 461.59375 375.125 C 458.10675 375.85981 452.574 380.35291 453.4375 381.75 C 453.7254 382.21584 453.5319 382.59375 453 382.59375 C 451.4515 382.59375 442.83965 372.52334 442.84375 370.71875 C 442.84375 369.81573 443.74585 367.61329 444.84375 365.8125 C 445.94175 364.01171 446.84375 362.09921 446.84375 361.5625 C 446.84375 359.51677 443.514 360.73609 440.3125 363.9375 L 436.96875 367.25 L 430.0625 364.0625 C 420.9316 359.83313 414.7636 357.81742 404.0625 355.625 C 381.8547 351.0751 370.01135 339.50611 365.34375 317.71875 C 364.19235 312.34415 366.47 314.86769 367.9375 320.59375 C 368.7874 323.90997 369.74555 325.59427 370.78125 325.59375 C 374.19685 325.59175 384.692 319.51888 390.5625 314.15625 C 395.9434 309.24087 397.77435 306.52643 404.28125 293.78125 C 408.41015 285.69397 413.3735 276.28125 415.3125 272.84375 C 415.64711 272.25054 415.90694 271.70099 416.1875 271.15625 L 416.21875 271.1875 C 416.21875 271.1875 416.56491 270.4524 416.875 270.5 C 417.10135 270.53474 417.1874 270.95217 417.21875 271.125 C 415.66785 273.59254 414.40625 275.75772 414.40625 276 C 414.40625 276.27335 416.09375 275.72402 418.15625 274.8125 C 420.85965 273.61772 424.83655 273.16894 432.40625 273.15625 C 444.29055 273.13635 451.0705 275.13879 458.6875 280.96875 L 462.90625 284.21875 L 464.28125 275.03125 C 465.07025 269.78722 465.3922 263.86528 465 261.25 C 464.86616 260.35725 464.61868 259.43303 464.34375 258.53125 C 464.46971 258.12186 465.04542 256.40553 465.875 256.34375 C 466.42424 256.30286 466.93657 257.07027 467.28125 257.65625 C 468.63153 261.54212 468.60318 269.07282 467.375 285.3125 C 466.6905 294.36358 466.8611 296.93413 468.625 303.8125 C 469.7517 308.20609 472.2864 315.25744 474.25 319.46875 C 477.5004 326.43989 479.06365 328.26468 491.59375 339.9375 C 508.54065 355.72501 515.78615 363.12258 521.46875 370.46875 C 526.07045 376.41761 527.15635 378.79096 523.96875 375.90625 C 522.14095 374.25207 522.0675 374.48272 521.625 384 C 521.1829 393.50838 520.9483 394.40365 513.0625 413.8125 C 508.5932 424.8125 503.7171 438.0875 502.25 443.3125 C 500.7829 448.5375 498.97185 453.50669 498.21875 454.375 C 496.27235 456.61923 496.4858 457.14178 499.5625 457.5 C 502.0162 457.78569 506.84375 463.00124 506.84375 465.375 C 506.84375 467.06933 503.56815 469.31495 501.03125 469.34375 C 498.70855 469.37015 498.5893 469.5122 500.125 470.40625 C 501.0991 470.97333 501.64565 471.8241 501.34375 472.3125 C 500.75415 473.26648 504.21945 473.99013 512.59375 474.625 C 517.74755 475.01572 517.84375 474.97345 517.84375 472.28125 C 517.84375 465.30787 525.9243 462.36787 530.5 467.6875 C 531.9755 469.40278 532.84375 471.70494 532.84375 473.875 L 532.84375 477.3125 L 541.84375 477.3125 L 550.84375 477.3125 L 550.84375 474.3125 C 550.84375 470.73985 553.94085 467.3125 557.15625 467.3125 C 560.43075 467.3125 561.84375 469.16694 561.84375 473.40625 L 561.84375 477.0625 L 568.59375 476.5625 C 572.30625 476.27806 575.4669 475.94365 575.625 475.8125 C 575.7831 475.68135 575.40535 474.43234 574.78125 473.0625 C 573.42545 470.08694 575.554 465.06077 578.9375 463.25 C 581.6379 461.80476 586.70645 463.77846 587.84375 466.71875 C 588.61405 468.71032 588.68435 468.73049 589.40625 466.9375 C 589.83385 465.87558 589.6531 464.23335 589 463.1875 C 587.4366 460.6841 587.5562 459.81303 589.25 461.21875 C 591.5723 463.14606 591.7655 466.12512 589.75 468.6875 C 587.6907 471.3054 587.2946 473.3125 588.8125 473.3125 C 592.8633 473.3125 601.762 469.86296 604.3125 467.3125 C 607.2111 464.41391 607.2739 464.09901 607.125 455.0625 C 606.9244 442.88606 603.4931 413.14695 600.9375 401.4375 C 597.9812 387.89216 590.1428 373.24483 579.875 362.03125 C 575.7465 357.52252 572.57205 355.25321 565.46875 351.84375 C 554.75745 346.70261 546.38315 339.61831 542.84375 332.6875 C 540.88415 328.85006 540.34375 326.30512 540.34375 320.8125 C 540.34375 314.59385 540.8125 312.86372 544.5625 305.3125 C 546.8841 300.6375 551.57935 292.0875 554.96875 286.3125 C 563.04945 272.54455 565.84375 263.8652 565.84375 252.6875 C 565.84375 247.81935 565.1559 241.74115 564.25 238.625 C 562.3843 232.20738 563.1154 230.34203 565.375 235.75 C 569.4303 245.45571 569.60765 257.48024 565.84375 269.53125 C 564.76625 272.98124 561.0436 280.79339 557.5625 286.90625 L 551.21875 298.03125 L 565.75 298.75 C 573.7321 299.13807 585.9095 300.0679 592.8125 300.84375 C 599.7156 301.61959 605.68125 302.27052 606.09375 302.28125 C 606.50625 302.29195 606.84375 301.23686 606.84375 299.9375 C 606.84375 296.45745 602.2556 274.60434 600.3125 268.8125 C 596.2197 256.61252 586.6963 242.99485 578.625 237.8125 C 576.0551 236.1625 573.93605 234.48133 573.90625 234.09375 C 573.76125 232.21211 581.8756 232.22891 593.125 234.125 C 616.3128 238.03337 641.31975 246.55298 666.34375 259.0625 C 705.97655 278.875 736.33465 299.55146 756.46875 320.46875 C 769.63565 334.14782 771.05535 337.70995 760.59375 330.875 C 753.97875 326.55316 740.4417 322.3125 733.3125 322.3125 C 729.0706 322.3125 727.3615 322.79473 725.6875 324.46875 C 724.2798 325.87643 723.13115 326.30808 722.34375 325.71875 C 721.68225 325.22366 717.3683 321.72359 712.75 317.96875 C 702.5324 309.66169 695.99385 305.78664 689.71875 304.28125 C 682.88345 302.64149 675.5539 304.93702 669.1875 310.71875 C 666.5217 313.13983 664.56875 315.30801 664.84375 315.5625 C 665.11875 315.81699 671.19375 318.37048 678.34375 321.21875 C 712.88355 334.97796 743.6329 359.18668 768.625 392.3125 C 783.0806 411.47284 790.29375 428.56121 791.53125 446.5 C 792.41795 459.35277 790.79695 466.10921 784.53125 475.71875 C 770.87775 496.65879 744.01995 516.66032 702.34375 536.90625 C 651.08605 561.80677 601.27465 577.38676 501.34375 599.78125 C 425.19615 616.84591 397.47175 624.16159 373.28125 633.59375 C 349.60445 642.82562 327.51145 654.89416 319.96875 662.6875 C 317.15395 665.59594 316.7253 666.61618 317.3125 668.96875 C 319.6154 678.19544 331.71445 684.82617 353.34375 688.6875 C 357.74375 689.473 363.14375 690.14955 365.34375 690.1875 L 369.34375 690.25 L 363.25 687.21875 C 356.1136 683.65142 344.5355 674.60834 345.375 673.25 C 345.6938 672.73416 347.17625 672.2733 348.65625 672.25 C 350.13625 672.2267 353.81875 671.63068 356.84375 670.90625 L 362.34375 669.59375 L 358.15625 668.40625 C 349.60865 666.03425 345.414 659.79903 349.75 655.875 C 354.5885 651.4962 378.83155 642.79987 409.84375 634.3125 C 448.24305 623.80345 483.86205 616.12232 555.84375 602.8125 C 627.89785 589.48929 642.7691 586.81509 686.6875 579.3125 C 753.301 567.93292 780.90525 561.45382 803.71875 551.8125 C 835.30185 538.46505 855.07715 515.81149 861.34375 485.8125 C 863.34845 476.21555 863.6425 457.14235 861.9375 445.8125 C 856.0604 406.75752 833.0482 358.46488 798 311.59375 C 777.4045 284.05081 744.44995 258.00454 696.40625 231.28125 C 678.60135 221.37767 664.25135 214.84077 648.21875 209.3125 C 636.33695 205.21548 618.4104 200.3125 615.3125 200.3125 C 614.3982 200.3125 602.21635 204.59572 588.21875 209.84375 C 553.67885 222.79355 537.16805 228.62117 497.78125 241.71875 L 472.8125 250 L 470.4375 250.5625 C 467.25552 251.18122 463.5 252.625 463.5 252.625 C 462.58488 252.8197 461.21546 253.1357 459.78125 253.5 C 458.07539 253.6621 454.38657 254.74818 448.46875 256.5625 C 448.40342 256.58076 447.81804 256.74845 447.8125 256.75 C 445.67503 257.4073 443.93204 257.93076 441 258.84375 L 421.09375 265.03125 L 421.03125 265.125 L 415.53125 267.0625 C 413.68277 267.50405 410.99464 268.20361 408.03125 269.03125 C 383.30695 275.93646 357.30555 280.86379 336.84375 282.53125 C 329.59705 283.12179 312.36615 285.94576 295.84375 289.25 C 268.80705 294.65694 266.54785 294.9306 251.84375 295 C 238.57185 295.0626 235.8112 294.80139 232.5625 293.1875 C 225.0547 289.45767 223.71735 281.64991 229.34375 274.28125 C 231.26875 271.76016 232.8676 268.67675 232.875 267.40625 C 232.92 259.59936 243.9275 237.44706 255.5 221.875 C 262.1469 212.93089 277.2837 197.80771 285.5 191.9375 C 297.5481 183.32964 319.1266 175.59375 331.0625 175.59375 C 335.3335 175.59375 336.4446 176.01883 338.9375 178.6875 C 340.9593 180.85182 341.84375 182.82213 341.84375 185.1875 C 341.84375 187.05433 342.01945 188.59375 342.21875 188.59375 C 342.41815 188.59375 345.90565 187.21299 349.96875 185.53125 C 364.81445 179.3866 398.4751 169.75087 417.8125 166.125 C 434.2082 163.05069 458.54005 160.51059 476.84375 159.96875 C 491.61585 159.53145 498.6716 158.80902 511.8125 156.34375 L 528.25 153.25 L 518.8125 148.625 C 513.6111 146.0809 507.09375 143.0475 504.34375 141.875 C 501.59375 140.70249 490.79375 135.67521 480.34375 130.71875 C 469.89375 125.7623 457.9018 120.56554 453.6875 119.15625 C 436.697 113.47453 415.91575 110.43681 394.34375 110.5 z M 405.875 115.59375 C 408.4565 115.59375 408.36355 116.19245 405.34375 119.78125 C 403.96875 121.41534 402.84375 123.56841 402.84375 124.59375 C 402.84375 125.61909 402.39375 126.75383 401.84375 127.09375 C 401.26685 127.45029 400.84375 126.51137 400.84375 124.875 C 400.84375 123.31492 401.55005 121.03487 402.40625 119.8125 C 403.26245 118.59012 403.77025 117.59375 403.53125 117.59375 C 402.11195 117.59375 394.7641 121.23454 391.0625 123.78125 C 385.4411 127.64894 384.55265 126.78435 389.84375 122.59375 C 394.08625 119.23366 402.4387 115.59375 405.875 115.59375 z M 362.4375 116.78125 C 364.08886 116.54172 363.91383 118.25004 362.03125 122.125 C 360.82755 124.60265 359.84375 127.98971 359.84375 129.625 C 359.84375 131.26029 359.39375 132.59375 358.84375 132.59375 C 357.54205 132.59375 357.5621 127.45341 358.875 124 C 359.4404 122.51292 359.6952 121.1014 359.4375 120.84375 C 358.2986 119.70486 348.94125 130.70748 346.28125 136.3125 C 343.41335 142.35564 341.05365 144.81562 342.40625 140.34375 C 344.80125 132.42549 353.63115 121.11377 360.15625 117.65625 C 361.11212 117.14974 361.88705 116.86109 362.4375 116.78125 z M 444.03125 125.65625 C 444.77308 125.63365 445.31036 125.71655 445.5 125.90625 C 445.8869 126.29317 445.22505 127.63547 444.03125 128.90625 C 442.83745 130.17704 441.84375 131.7542 441.84375 132.40625 C 441.84375 133.0583 441.39375 133.59375 440.84375 133.59375 C 440.29375 133.59375 439.84375 133.11741 439.84375 132.53125 C 439.84375 131.94509 440.3056 130.59509 440.875 129.53125 C 442.2034 127.04903 441.28325 127.04457 434.65625 129.5625 C 428.87315 131.75991 427.3995 131.59725 431.125 129.15625 C 433.47524 127.61629 440.81665 125.75412 444.03125 125.65625 z M 473.21875 134.59375 C 475.83575 134.58875 475.9968 134.82598 475.375 137.34375 C 474.3677 141.42243 472.84375 142.51282 472.84375 139.15625 C 472.84375 136.50772 472.63445 136.35245 469.59375 136.90625 C 467.80625 137.2318 465.261 137.83571 463.9375 138.21875 C 462.2781 138.69901 461.74125 138.55393 462.21875 137.78125 C 463.06495 136.41208 469.32515 134.60134 473.21875 134.59375 z M 323.15625 138.71875 C 323.25055 138.71075 323.33076 138.73705 323.375 138.78125 C 323.6088 139.01507 322.8703 141.04824 321.75 143.3125 C 319.5371 147.7852 318.9375 152.79693 320.1875 156.34375 C 321.3839 159.7385 319.28125 159.06422 317.84375 155.59375 C 317.08915 153.77197 316.8885 151.14386 317.3125 148.84375 L 318 145.09375 L 314.3125 148.59375 C 309.3925 153.23368 303.37145 162.52036 301.34375 168.625 C 299.39395 174.4955 297.2785 176.52659 298.375 171.46875 C 299.5999 165.81896 305.3936 155.31471 310.3125 149.84375 C 314.95087 144.6848 321.74212 138.84467 323.15625 138.71875 z M 503.875 144.71875 C 504.41087 144.70205 504.88926 144.6998 505.34375 144.75 C 508.28775 145.07561 508.333 145.17282 507.25 148.5 C 506.5816 150.55362 505.87 151.41848 505.4375 150.71875 C 505.0438 150.08171 504.9866 148.71446 505.3125 147.6875 C 505.8574 145.97079 505.5371 145.89826 501.3125 146.6875 C 498.7853 147.15963 496.29445 147.80779 495.78125 148.125 C 495.26795 148.4422 494.84375 148.24788 494.84375 147.6875 C 494.84375 146.44795 500.12393 144.83571 503.875 144.71875 z M 276.9375 173.59375 C 277.3863 173.59375 277.5074 175.79883 277.1875 178.5 C 276.8651 181.2222 277.0911 184.85431 277.71875 186.65625 C 278.34205 188.44427 278.63045 190.15085 278.34375 190.4375 C 277.14835 191.63294 275.6109 188.45269 275 183.5 L 274.34375 178.1875 L 271.4375 181.65625 C 267.9951 185.73937 262.1228 197.62849 261.25 202.28125 C 260.9104 204.09126 260.175 205.59375 259.625 205.59375 C 259.0116 205.59375 258.8829 204.14394 259.3125 201.84375 C 260.53 195.32408 266.50545 183.86435 271.40625 178.625 C 274.00565 175.84596 276.4887 173.59375 276.9375 173.59375 z M 238.75 210.59375 C 239.2262 210.59375 239.95835 212.28125 240.34375 214.34375 C 240.72915 216.40625 241.51455 218.6742 242.09375 219.375 C 242.67285 220.07579 242.87125 220.90991 242.53125 221.25 C 241.52845 222.25273 238.84375 219.5077 238.84375 217.46875 C 238.84375 211.59428 234.89655 219.9698 233.59375 228.59375 C 233.26125 230.79443 233.0933 230.86625 232.375 229.25 C 230.8956 225.92096 236.1334 210.59375 238.75 210.59375 z M 227.53125 232.0625 C 229.39715 232.0187 235.6875 238.47783 235.6875 240.4375 C 235.6875 242.80014 234.9328 242.37933 233.25 239.125 C 232.4262 237.53209 230.49665 235.29592 228.96875 234.15625 C 227.44085 233.01658 226.78875 232.07992 227.53125 232.0625 z M 521.0625 460.3125 C 521.6704 460.3125 521.4494 461.08246 520.5625 462.0625 C 519.6812 463.03631 518.51285 464.94881 517.96875 466.3125 C 517.10855 468.46855 516.96135 468.5443 516.90625 466.78125 C 516.83225 464.41346 519.4709 460.3125 521.0625 460.3125 z M 533.34375 462.71875 C 533.77333 462.78095 534.64811 463.4742 535.75 464.875 C 537.9577 467.68166 538.56425 471.3125 536.84375 471.3125 C 536.29375 471.3125 535.84375 470.50887 535.84375 469.53125 C 535.84375 468.55362 535.1311 466.72669 534.25 465.46875 C 532.95541 463.62049 532.79143 462.63878 533.34375 462.71875 z M 416.40625 463.625 C 416.72232 463.5987 417.06313 463.6017 417.40625 463.625 C 418.77874 463.7184 420.29715 464.22364 421.40625 465.0625 C 423.61635 466.73414 422.49295 466.93298 418.90625 465.5 C 417.56715 464.965 415.877 464.74269 415.125 465.03125 C 414.3731 465.31981 414.00765 465.10615 414.34375 464.5625 C 414.68331 464.01303 415.45803 463.70383 416.40625 463.625 z M 443.875 464.59375 C 445.8046 464.59375 450.23435 469.02451 449.71875 470.4375 C 449.52235 470.97591 448.50245 470.2595 447.46875 468.875 C 445.88055 466.74801 445.02785 466.46081 441.96875 466.9375 C 438.62855 467.45797 438.49045 467.37297 440.28125 466.03125 C 441.34885 465.23137 442.976 464.59375 443.875 464.59375 z M 549.125 466.5 C 549.50053 466.491 549.43294 467.92574 548.9375 470.8125 C 548.3354 474.32037 548.2009 474.52121 547.625 472.40625 C 547.2638 471.07983 547.40245 469.12069 547.96875 468.0625 C 548.51636 467.03929 548.89968 466.50546 549.125 466.5 z M 402.375 466.6875 C 402.51611 466.6785 402.7299 466.7237 403 466.8125 C 404.6668 467.36064 405.45145 474.59375 403.84375 474.59375 C 403.17825 474.59375 402.97625 473.78283 403.34375 472.625 C 403.68625 471.54578 403.4464 469.68441 402.8125 468.5 C 402.1192 467.20465 401.95168 466.71381 402.375 466.6875 z "
     id="path3288" />
  <path
     style="fill:#241c1c"
     d="m 59.882817,479.91264 c 2.7038,-1.00376 2.8316,-2.7093 0.5066,-6.76037 -1.3897,-2.4215 -1.4912,-3.28987 -0.5,-4.28104 0.9912,-0.99117 1.2456,-0.645 1.2545,1.70662 l 0.011,2.95 2.5614,-3.25 c 3.3331,-4.22926 7.9693,-4.5561 9.4483,-0.66608 0.5403,1.42115 0.7276,2.99615 0.4162,3.5 -0.3114,0.50384 -0.2021,0.90529 0.2429,0.89211 1.6093,-0.0477 20.6655,-10.50243 20.9975,-11.51986 0.1874,-0.5741 -1.2536,-1.62034 -3.2022,-2.32496 -5.3956,-1.95106 -17.6629,-10.51425 -22.3557,-15.60539 -5.1516,-5.58875 -5.8934,-7.45143 -7.9751,-20.02582 -0.9105,-5.5 -2.1055,-9.89424 -2.6555,-9.76498 -1.7008,0.39971 -14.1759,22.01069 -17.3754,30.09978 -3.98,10.06259 -6.434,18.91657 -5.7425,20.71862 0.3053,0.79562 1.6639,1.44658 3.0191,1.44658 1.6476,0 2.6915,0.71664 3.1505,2.16289 0.6081,1.91609 0.7927,1.97314 1.6171,0.5 0.5118,-0.91459 1.4133,-1.66289 2.0033,-1.66289 0.6435,0 0.5236,0.66528 -0.2997,1.66262 -1.425,1.72633 -1.1897,1.68424 3.3735,-0.60337 2.4343,-1.22033 2.9734,-1.17072 4.75,0.43707 2.8988,2.62335 2.5742,7.07085 -0.7403,10.14259 l -2.7444,2.54341 3.9944,-0.73112 c 2.1969,-0.40211 5.0069,-1.107 6.2444,-1.56641 z"
     id="path3230"
     inkscape:connector-curvature="0" />
  <path
     style="fill:#241f1c"
     d="m 177.47169,228.03125 c -0.47145,0.0181 -0.90692,0.1593 -1.3125,0.4375 -1.3749,0.94304 -7.9425,18.83863 -9.25,25.21875 -0.6298,3.07323 -1.73565,16.34823 -2.46875,29.5 -1.8623,33.41089 -3.3433,35.96679 -11.3125,19.40625 -2.2496,-4.675 -5.2356,-9.57364 -6.625,-10.875 l -2.53125,-2.375 -1.625,3.875 c -0.9035,2.12636 -2.59015,6.35 -3.71875,9.375 -1.9926,5.34049 -3.7063,8.38751 -4.375,7.71875 -0.3813,-0.38127 5.9083,-17.53411 7.5625,-20.625 0.6165,-1.15187 1.72005,-2.09375 2.46875,-2.09375 3.1715,0 10.56285,11.11763 13.59375,20.46875 l 1.28125,4 1.1875,-3.5 c 1.6971,-4.96144 2.8612,-40.23253 1.375,-41.71875 -1.194,-1.19405 -0.5784,-4.37166 2.4375,-12.75 3.5238,-9.7895 3.12615,-9.96023 -4.46875,-1.78125 -14.2903,15.38921 -30.77975,44.12449 -30.90625,53.875 -0.056,4.33964 -0.17275,4.62747 -1.09375,2.40625 -1.0272,-2.4772 -0.46645,-21.08354 0.78125,-25.75 0.332,-1.24165 0.14925,-2.25 -0.40625,-2.25 -2.2505,0 -13.3127,9.23191 -17.125,14.28125 -4.4383,5.87845 -14.093747,21.51377 -14.093747,22.84375 0,0.45386 2.725199,-0.55407 6.062497,-2.25 3.3374,-1.69593 6.3327,-2.85482 6.625,-2.5625 0.2923,0.29231 -1.90155,1.75937 -4.84375,3.25 -17.283598,8.75656 -29.542897,20.36693 -34.749997,32.875 -3.0587,7.34726 -3.67445,9.74865 -6.46875,24.6875 -0.7845,4.19451 -2.658349,10.49451 -4.15625,14 -3.5062,8.20548 -4.1194,13.68276 -2,17.78125 1.7143,3.31505 3.53125,3.32988 3.53125,0.0312 0,-1.31436 0.6813,-1.9375 2.125,-1.9375 4.9358,0 12.02085,6.65102 18.84375,17.75 3.5855,5.83259 5.87445,7.59154 8.09375,6.1875 2.2414,-1.41806 3.3179,-1.10084 1.9375,0.5625 -0.6847,0.825 -2.30335,1.5 -3.59375,1.5 -1.6746,0 -2.1609,0.42933 -1.75,1.5 0.6622,1.72589 7.8647,2.10345 8.875,0.46875 0.3454,-0.55897 1.0723,-0.7166 1.625,-0.375 0.5527,0.34159 1.9907,-0.26808 3.187497,-1.34375 2.5326,-2.27629 5.65625,-3.57709 5.65625,-2.34375 0,0.46949 -1.0881,1.58457 -2.4375,2.46875 -2.95,1.93287 -7.099397,8.85527 -8.062497,13.46875 -0.5881,2.81711 -0.25555,3.79776 2.09375,6.25 3.254497,3.3969 1.9199,3.88253 -2.0625,0.75 -2.3709,-1.865 -2.66535,-2.70114 -2.21875,-6.03125 0.2845,-2.12062 1.44595,-5.64153 2.59375,-7.84375 l 2.09375,-4 -2.46875,1.59375 c -2.1017,1.37708 -3.0083,1.42519 -6.25,0.34375 -2.0834,-0.69503 -5.64005,-1.16388 -7.90625,-1.03125 -4.6391,0.2715 -10.70935,-1.91432 -14.09375,-5.09375 -2.5983,-2.44098 -2.84965,-1.45442 -1.09375,4.40625 1.5897,5.30579 7.1976,11.44905 16,17.5 13.1864,9.06472 20.649047,10.61676 39.843747,8.28125 17.6426,-2.14667 34.1733,-7.86948 50.5,-17.46875 10.2062,-6.00073 17.509,-13.00765 26.4375,-25.40625 7.6107,-10.56868 10.4277,-16.57358 12.4375,-26.3125 2.5109,-12.16695 2.1214,-19.98526 -1.4375,-28.71875 -3.7226,-9.13548 -3.21995,-11.96157 0.59375,-3.34375 2.3482,5.30614 2.9748,6.0545 4.25,5 2.8827,-2.38381 6.1774,-11.06205 6.1875,-16.34375 0.013,-6.87942 -1.7142,-15.52671 -3.4375,-17.25 -1.2047,-1.20467 -1.78985,-1.00839 -4.09375,1.46875 -1.4762,1.5873 -4.19145,5.83125 -6.03125,9.40625 -3.8626,7.50587 -4.21855,7.28776 -1.46875,-0.875 5.7809,-17.16024 2.18695,-54.06575 -7.59375,-77.9375 -8.642,-21.09236 -16.19269,-32.92546 -20.75,-32.75 z m -25.53125,39.78125 c 0.95567,-0.0402 1.72234,1.87501 2.1875,5.59375 0.6212,4.96529 -1.3894,5.46496 -2.375,0.59375 l -0.59375,-2.90625 -1.0625,2.5625 c -0.5843,1.40747 -1.6219,4.44497 -2.3125,6.75 -1.1693,3.90274 -2.9919,5.7683 -2.875,2.9375 0.064,-1.54184 4.0053,-11.53341 5.625,-14.25 0.49969,-0.83808 0.97185,-1.26299 1.40625,-1.28125 z m -24.25,44.78125 c 0.6442,0 1.16465,1.0125 1.15625,2.25 -0.019,2.85226 -1.5175,5.32498 -2.375,3.9375 -0.3455,-0.55908 -0.3079,-1.83161 0.0625,-2.84375 0.6388,-1.74697 0.5596,-1.74599 -1.5,0.0625 -1.1933,1.04769 -2.1875,1.45625 -2.1875,0.90625 0,-1.32404 3.36035,-4.3125 4.84375,-4.3125 z m -10.0625,9.5 c 0.6656,0 1.21875,0.3375 1.21875,0.75 l 0,3.25 c 0,2.8429 -1.65245,3.4022 -2.21875,0.75 -0.2864,-1.34157 -0.77105,-0.99148 -2.09375,1.5 -1.848,3.48097 -2.6875,4.07561 -2.6875,1.90625 0,-1.98438 4.37115,-8.15625 5.78125,-8.15625 z m -9.25,14.59375 c 0.7738,0.002 1.45411,0.7024 1.84375,2.15625 0.9047,3.37574 0.7467,5.75 -0.375,5.75 -0.55,0 -1,-1.125 -1,-2.5 0,-3.47485 -1.7017,-3.1345 -2.5,0.5 -0.6134,2.79277 -2.5,4.27869 -2.5,1.96875 0,-0.56766 0.67175,-2.59266 1.46875,-4.5 0.92886,-2.22311 2.06762,-3.37792 3.0625,-3.375 z m -5.03125,13.5 c 1.2639,0.1319 2.57765,7.61313 1.53125,8.71875 -0.4285,0.45276 -1.14665,-0.44724 -1.59375,-2 -0.8017,-2.78444 -0.8143,-2.75756 -1.4375,1.1875 -0.5147,3.25823 -0.77795,3.64469 -1.46875,2.09375 -0.975097,-2.18936 1.38895,-10.16487 2.96875,-10 z m 63.65625,9.875 c 1.16152,-0.13951 -4.30494,3.02124 -15.375,8.65625 -15.8233,8.05451 -22.9949,13.94814 -28.25,23.21875 -1.9181,3.38372 -3.4915,5.58441 -3.5,4.875 -0.033,-2.77573 4.4095,-9.97233 9.3125,-15.03125 6.2272,-6.42528 12.6999,-10.47638 28.3125,-17.71875 5.72333,-2.65491 8.80309,-3.91629 9.5,-4 z M 198.34669,368 c 0.31096,0.0622 0.12376,1.32709 -0.5625,3.8125 -1.4622,5.29545 -8.205,14.55723 -14.8125,20.28125 l -5.78125,5 -0.5,8 c -0.8357,13.49699 -5.52275,20.23953 -17.96875,25.9375 -7.6791,3.51561 -13.1937,4.09208 -20.75,2.15625 -7.8363,-2.00756 -7.15515,-2.05495 -10.28125,0.84375 l -2.625,2.4375 -1.84375,-2.03125 c -1.4532,-1.60585 -1.5501,-2.0156 -0.375,-1.84375 3.0074,0.43983 4.4299,-0.22154 2,-0.9375 -2.4504,-0.72198 -2.4256,-0.76307 1.25,-2.34375 3.4876,-1.49986 5.5736,-4.36912 2.25,-3.09375 -0.8262,0.31706 -2.7387,0.2226 -4.25,-0.21875 -2.5664,-0.74951 -2.456,-0.82499 1.6875,-1.34375 4.1211,-0.51595 4.66325,-0.95312 7.65625,-6.0625 5.8851,-10.04634 16.73695,-16.95838 30.40625,-19.34375 4.4847,-0.7826 9.1082,-2.31588 11.5,-3.84375 6.3178,-4.03573 15.9553,-14.82061 19.4375,-21.71875 1.95092,-3.86476 3.16269,-5.76748 3.5625,-5.6875 z m -97.40625,4.59375 c 0.8594,0 3.90625,5.82894 3.90625,7.46875 0,1.6957 -2.06785,0.12663 -2.59375,-1.96875 -0.968,-3.85675 -2.406247,-2.95907 -2.406247,1.5 0,2.2 -0.45,4 -1,4 -0.55,0 -1,-1.60134 -1,-3.5625 0,-3.8813 1.48245,-7.4375 3.093747,-7.4375 z m 4.53125,50.21875 c 0.15966,-0.0127 0.32969,-0.009 0.5,0 0.45416,0.0249 0.94737,0.12153 1.53125,0.28125 l 2.84375,0.78125 -3.34375,0.75 c -1.8384,0.41064 -3.8284,1.23471 -4.4375,1.84375 -0.609,0.60904 -1.56,1.125 -2.125,1.125 -0.564997,0 0.14605,-1.17726 1.59375,-2.625 1.41803,-1.41801 2.31991,-2.06738 3.4375,-2.15625 z m 5.25,5.78125 c 1.0278,0 2.4499,3.01886 1.75,3.71875 -0.2433,0.24339 -0.9486,-0.4779 -1.5625,-1.625 -0.6143,-1.14784 -0.6983,-2.09375 -0.1875,-2.09375 z m 5.3125,4 c 1.62454,-0.12211 3.99842,1.04859 6.46875,3.3125 1.995,1.82828 3.44185,3.8618 3.21875,4.53125 -0.2441,0.73232 -1.77865,-0.18187 -3.84375,-2.3125 -2.0232,-2.08751 -4.38845,-3.53125 -5.78125,-3.53125 -1.3206,0 -2.0954,-0.4411 -1.75,-1 0.37262,-0.60292 0.94907,-0.9445 1.6875,-1 z m -13.28125,3 c 0.3658,0 0.49025,1.77768 0.28125,3.96875 -0.2089,2.19107 0.0777,5.34107 0.65625,7 0.5783,1.65893 0.6663,3.03125 0.1875,3.03125 -0.4787,0 -1.376,-1.54675 -2,-3.4375 -1.0936,-3.31375 -0.4907,-10.5625 0.875,-10.5625 z m 13,2 c 1.9892,0 6.09375,2.73962 6.09375,4.0625 0,1.45506 -1.601,1.1047 -3.0625,-0.65625 -0.9052,-1.09071 -2.2367,-1.40266 -4.25,-1 -2.5193,0.50385 -2.7582,0.38383 -1.6875,-0.90625 0.6844,-0.82467 1.99595,-1.5 2.90625,-1.5 z m 4.71875,8 c 3.5401,0 2.1049,1.64397 -2.125,2.4375 -1.9435,0.36459 -4.0801,1.52098 -4.75,2.59375 -1.7206,2.75502 -2.9319,2.43072 -1.625,-0.4375 1.2296,-2.69872 4.7689,-4.59375 8.5,-4.59375 z"
     id="path3220"
     inkscape:connector-curvature="0" />
  <path
     style="fill:#ffff00"
     d="m 154.9314,429.62422 c 11.9754,-5.12475 17.0619,-11.74123 18.173,-23.63931 0.3758,-4.02488 0.2565,-6.48357 -0.2982,-6.14079 -0.5087,0.31442 -4.3717,1.05107 -8.5845,1.63701 -6.9478,0.96635 -18.8091,5.12321 -18.8091,6.59174 0,0.32754 0.9656,1.90158 2.1458,3.49788 1.8183,2.45939 2.056,3.77223 1.5575,8.60195 -0.6518,6.31542 -1.5372,7.79941 -4.0731,6.82631 -2.2384,-0.85897 -4.4084,-5.17224 -5.25,-10.43558 l -0.6771,-4.23393 -1.8871,2.37896 c -2.6135,3.29457 -6.816,11.49931 -6.816,13.30716 0,0.88669 1.5254,1.89251 3.75,2.47265 8.3829,2.18615 14.2073,1.94383 20.7688,-0.86405 z"
     id="path3208" />
  <path
     style="fill:#ffff00"
     d="m 145.0168,411.85824 c -0.3323,-0.33229 -0.5687,0.25834 -0.5253,1.3125 0.048,1.16495 0.285,1.4019 0.6042,0.60417 0.2889,-0.72188 0.2533,-1.58438 -0.079,-1.91667 z"
     id="path3206" />
  <path
     style="fill:#ffff00"
     d="m 81.876099,429.33741 c -0.7466,-2.50283 -4.4774,-9.16882 -6.856,-12.25 -1.5142,-1.96152 -1.5448,-1.9519 -1.5894,0.5 -0.066,3.60467 -1.1081,7 -2.1494,7 -0.494,0 -1.8101,-1.4625 -2.9247,-3.25 -1.501,-2.40702 -1.9511,-4.59044 -1.7353,-8.41786 0.2275,-4.03637 -0.089,-5.4048 -1.4451,-6.25 -2.6011,-1.62098 -3.4837,-1.33355 -4.1583,1.35425 -0.8598,3.42595 1.1368,11.87635 3.7278,15.77706 2.6041,3.92039 9.7768,7.78655 14.4462,7.78655 3.012,0 3.2868,-0.23034 2.6842,-2.25 z"
     id="path3182" />
  <path
     style="fill:#ffff00"
     d="m 72.412599,413.52839 c 0,-0.51754 -0.45,-0.94098 -1,-0.94098 -0.55,0 -1,0.70156 -1,1.55902 0,0.85746 0.45,1.2809 1,0.94098 0.55,-0.33992 1,-1.04148 1,-1.55902 z"
     id="path3180" />
  <path
     style="fill:#000000"
     d="m 220.4297,379.23734 c 2.3569,-4.71669 2.9829,-7.28273 2.9829,-12.22786 0,-10.7464 -1.5458,-11.87273 -7.0982,-5.17207 -3.1159,3.76028 -3.4328,4.6533 -2.75,7.75 0.4244,1.925 0.5863,4.85 0.3597,6.5 -0.2266,1.65 -0.689,5.46874 -1.0275,8.48609 l -0.6155,5.4861 2.5828,-2.42645 c 1.4205,-1.33454 3.9251,-5.11266 5.5658,-8.39581 z"
     id="path3176" />
  <path
     style="fill:#241f1c"
     d="M 120.125 233.15625 C 118.11511 233.41166 114.72403 235.27861 109.8125 238.78125 C 102.1248 244.26375 88.3105 268.13392 80.375 289.65625 C 76.2827 300.75524 73.49195 312.18368 71.84375 324.5625 C 69.59605 341.44418 69.33205 341.09696 77.65625 332.4375 C 81.64375 328.28942 86.7745 323.65342 89.0625 322.15625 C 89.769885 321.69336 90.442856 321.20238 91.03125 320.6875 L 97.21875 317.71875 L 104.65625 313.8125 L 104.65625 304.28125 C 104.65625 304.28125 102.18405 307.76082 100.78125 307.03125 C 99.91328 306.57981 100.43697 304.57179 100.6875 303.75 C 103.25748 299.38566 105.73698 295.49543 106.4375 295.0625 C 106.9781 294.72835 107.40905 293.48629 107.40625 292.28125 C 107.40625 291.07621 108.0288 288.06875 108.8125 285.59375 C 112.9156 272.63465 114.4506 266.79183 114.4375 263.90625 C 114.4275 262.15019 115.2656 259.22519 116.3125 257.40625 C 118.175 254.17005 122.40625 238.9349 122.40625 235.46875 C 122.40625 233.75378 121.68825 232.95759 120.125 233.15625 z "
     id="path3170" />
  <path
     style="fill:#483737"
     d="M 575.90625 233.59375 L 578.9375 235.4375 C 585.8902 239.67744 595.45055 253.13084 599.90625 264.96875 C 604.49495 277.15965 610.40625 312.50614 610.40625 327.71875 C 610.40625 330.81587 610.6978 334.83294 611.0625 336.65625 C 611.6796 339.74152 611.92045 339.38616 614.15625 331.53125 C 615.47755 326.88919 617.97385 319.71875 619.71875 315.59375 C 625.39025 302.18597 632.31975 297.14449 641.65625 299.65625 C 647.81545 301.31326 651.0088 303.18837 655.375 307.6875 L 659.25 311.65625 L 659.96875 306.03125 C 661.43215 294.3182 658.4652 283.73254 650.1875 270.9375 C 646.84426 265.76969 641.59549 259.06413 636.90625 253.65625 L 637.09375 253.78125 C 637.09375 253.78125 636.63875 252.97157 637.09375 252.65625 C 637.54875 252.34093 639.125 253.40625 639.125 253.40625 L 639.375 253.53125 C 647.17612 262.62217 655.79426 275.83629 659.1875 283.875 C 661.5364 289.43962 661.83455 291.32747 661.78125 301.8125 L 661.71875 313.53125 L 665.4375 309.3125 C 669.5875 304.6268 678.28725 299.04211 682.90625 298.09375 L 685.90625 297.46875 L 683.40625 299 L 680.90625 300.53125 L 684.15625 300.5625 C 691.08315 300.6383 701.81085 306.40638 714.40625 316.875 C 717.42365 319.38284 719.9847 321.32772 720.125 321.1875 C 720.2652 321.04728 719.7178 318.29832 718.875 315.0625 C 717.05259 308.0657 710.77061 295.91606 704.5625 287.1875 C 704.56873 286.99815 704.65535 286.58161 705.09375 286.5 C 705.67828 286.39118 707.25 288.03125 707.25 288.03125 C 707.25334 288.03616 707.2779 288.02634 707.28125 288.03125 C 707.46872 288.30619 707.61456 288.55899 707.8125 288.84375 C 715.6934 300.18165 719.21015 307.95243 721.84375 319.875 C 722.42855 322.52261 722.57165 322.58507 724.65625 321.125 C 728.10885 318.70669 736.32 319.2415 746.6875 322.5625 C 751.7948 324.19853 756.8508 326.20977 757.9375 327.03125 C 760.5151 328.97966 760.6867 328.93618 759.5 326.71875 C 757.9802 323.87895 742.97915 310.10929 732.90625 302.28125 C 728.02362 298.48681 719.9129 292.75541 713.5 288.4375 L 708.78125 285.125 L 696.6875 277.59375 C 691.33394 274.06268 681.43316 269.14209 679.3125 268.09375 C 664.95477 260.27709 649.85869 253.05042 638.625 248.65625 L 637.75 248.3125 L 637.59375 248.25 L 627.9375 244.375 L 620.03125 241.8125 L 620.46875 242.125 C 607.19778 238.21349 585.64459 233.59278 579.40625 233.59375 L 575.90625 233.59375 z M 635.6875 286 C 637.22097 285.995 638.79808 286.19296 640.46875 286.59375 C 643.12545 287.23107 645.8554 288.41082 646.5 289.1875 C 648.0307 291.0319 647.0228 290.9521 643.1875 288.96875 C 638.0603 286.31741 630.70695 287.48619 624.28125 291.96875 L 618.90625 295.71875 L 623.0625 291.71875 C 627.03817 287.87776 631.08708 286.01369 635.6875 286 z "
     id="path3168" />
  <path
     style="fill:#000000"
     d="m 655.227,310.42093 c -3.5973,-4.66467 -11.6585,-8.88331 -17.1868,-8.99428 -4.6475,-0.0933 -10.6674,2.64041 -8.9845,4.07994 0.4713,0.40314 6.0319,1.99834 12.3569,3.54489 6.325,1.54655 12.4,3.17129 13.5,3.61053 1.1,0.43925 2.1702,0.82715 2.3781,0.86201 0.208,0.0349 -0.7207,-1.36153 -2.0637,-3.10309 z"
     id="path3158" />
  <path
     style="fill:#483737"
     d="M 723.1875 98.40625 C 722.69014 98.373725 718.43906 100.40506 712.40625 103.59375 C 685.82265 117.64475 671.88635 123.59375 665.46875 123.59375 C 657.65325 123.59375 658.11245 112.10945 666.28125 103.21875 L 668.90625 100.34375 L 666.40625 101.09375 C 662.50045 102.25836 659.3865 104.03413 647.75 111.65625 C 634.7449 120.17476 619.95355 127.42066 600.40625 134.875 C 575.51395 144.36766 560.03895 148.53222 515.90625 157.59375 C 454.18255 170.26714 410.45165 182.66962 378.15625 196.65625 C 373.34375 198.74046 369.40625 200.2596 369.40625 200.03125 C 369.40625 199.80291 373.34375 197.62631 378.15625 195.21875 C 396.12255 186.23067 421.17725 177.95912 463.90625 166.90625 L 484.90625 161.46875 L 470.40625 162.09375 C 443.50385 163.22039 417.12055 167.224 390.40625 174.21875 C 377.40835 177.62207 341.88695 188.9946 339.84375 190.40625 C 339.29765 190.78356 335.5919 195.51896 331.625 200.9375 C 327.6581 206.35603 324.40625 210.09576 324.40625 209.25 C 324.40625 208.40423 326.4171 204.87901 328.875 201.40625 C 339.0407 187.04332 339.69685 185.09887 336.03125 180.09375 C 331.80165 174.31859 303.7415 181.22362 287.4375 192.0625 C 279.5796 197.28642 262.6384 213.64186 256.3125 222.09375 C 250.8786 229.35381 243.6985 240.95135 239.625 249.09375 C 236.9023 254.53623 233.04825 265.57952 233.65625 266.1875 C 233.79225 266.32352 236.15665 263.82876 238.90625 260.65625 C 252.87925 244.53417 277.0825 217.85105 286.625 208.03125 C 295.8414 198.547 306.40625 189.41456 306.40625 190.9375 C 306.40625 191.19203 300.27375 197.40786 292.78125 204.75 C 285.28865 212.09214 274.63705 223.26875 269.09375 229.59375 C 263.55035 235.91875 254.6979 245.81875 249.4375 251.59375 C 228.6348 274.43171 226.40625 277.43271 226.40625 282.59375 C 226.40625 291.37494 232.15095 293.69 252.40625 293.125 C 261.57145 292.86935 269.70825 291.82906 282.90625 289.21875 C 312.97525 283.27164 323.09615 281.65737 339.84375 280.0625 C 372.56455 276.94648 402.72865 269.29384 476.90625 245.375 C 521.35895 231.04106 583.24785 208.89694 620.90625 193.8125 C 640.80735 185.84093 706.6763 157.60744 707.75 156.59375 C 708.2149 156.15481 704.77165 156.02065 700.09375 156.3125 C 691.94045 156.82116 691.4826 156.76392 689 154.28125 C 680.1908 145.47202 696.07025 119.47096 722.90625 98.78125 C 723.21547 98.542846 723.30228 98.413756 723.1875 98.40625 z M 652.84375 132.90625 C 652.98142 132.89795 653.05976 132.9035 653.09375 132.9375 C 653.91445 133.75812 585.36905 159.52986 548.40625 172.28125 C 513.99805 184.15136 354.87645 236.19266 325.59375 245.15625 C 312.21455 249.25173 294.9327 254.20579 287.1875 256.15625 C 279.4424 258.10671 271.5303 260.32894 269.625 261.125 C 265.7659 262.73745 265.40625 262.82871 265.40625 262.03125 C 265.40625 260.82091 274.5199 257.57977 286.125 254.65625 C 324.6859 244.94206 530.35755 177.4809 598.90625 152.0625 C 636.66622 138.06079 650.77865 133.03077 652.84375 132.90625 z M 606.9375 143.8125 C 607.16139 143.80092 607.32103 143.81534 607.40625 143.84375 C 608.01585 144.04697 600.6548 146.30527 591.0625 148.84375 C 534.1998 163.89162 522.1818 167.22202 498.625 174.46875 C 484.325 178.86783 454.85 188.59 433.125 196.09375 C 411.4 203.59749 381.475 213.56435 366.625 218.21875 C 334.9147 228.15763 294.2915 239.15057 296.125 237.3125 C 296.4 237.03681 305.27155 234.48756 315.84375 231.65625 C 340.87915 224.95156 386.8761 210.40734 425.125 197.09375 C 469.9291 181.49841 473.9413 180.16806 493.5625 174.0625 C 528.08662 163.31957 599.99682 144.17147 606.9375 143.8125 z M 678.125 147.71875 C 680.03808 147.52174 673.51751 150.49191 660.03125 155.5 C 642.42335 162.03867 622.56802 168.5498 543.625 193.6875 C 528.53692 198.49198 500.48694 207.68619 481.3125 214.125 C 388.39974 245.32522 322.65862 266.2693 303.625 270.71875 C 282.12883 275.74388 267.58029 277.45174 261.28125 275.71875 C 255.83308 274.21988 258.05243 273.41542 266.53125 273.8125 C 277.47537 274.32505 294.32783 271.4842 315.46875 265.53125 C 332.84211 260.63917 411.81293 234.94554 479.59375 212.15625 C 504.11188 203.91275 535.76117 193.52057 549.90625 189.0625 C 588.34223 176.94868 650.45385 156.84324 665.25 151.71875 C 672.80506 149.10211 676.97715 147.83696 678.125 147.71875 z "
     id="path3156" />
  <path
     style="fill:#483737"
     d="M 330.3125 57.6875 C 328.06666 57.721964 322.13399 58.493984 312.875 60.0625 C 280.4117 65.56193 252.20705 73.09405 236.40625 80.46875 C 219.66005 88.28467 195.42745 102.90326 162.40625 125.09375 C 146.73125 135.62747 121.53125 152.5493 106.40625 162.71875 C 74.983749 183.846 75.2423 183.71228 77.8125 180.78125 C 78.8526 179.59514 87.1776 173.57014 96.3125 167.40625 C 105.4474 161.24236 126.18125 147.14441 142.40625 136.0625 C 173.91785 114.53962 197.13465 99.51461 209.65625 92.53125 C 213.90885 90.15955 217.21685 88.06065 217.03125 87.875 C 216.56085 87.4046 184.22025 98.896774 174.71875 102.90625 C 159.88065 109.16772 133.49545 128.59852 95.40625 161.3125 C 69.05805 183.9424 60.709751 192.14973 57.40625 198.625 C 55.71155 201.94701 55.65195 202.53216 56.96875 203.625 C 60.291751 206.38287 83.171599 202.00849 112.5625 192.96875 C 144.2878 183.21102 165.55015 179.34515 175.96875 181.4375 C 185.19475 183.29036 192.4227 188.97292 191 193.28125 C 190.2228 195.63494 183.12625 202.96755 171.09375 213.90625 C 161.26905 222.83773 149.69585 237.25724 144.78125 246.65625 C 141.90135 252.16405 140.76725 259.29329 141.84375 265.03125 L 142.5 268.59375 L 148.5625 260.5625 C 151.8865 256.15127 157.10355 250.41439 160.15625 247.8125 C 164.24525 244.32748 166.47345 241.38216 168.65625 236.59375 C 170.28595 233.01875 172.30245 229.30625 173.15625 228.34375 C 175.63315 225.55169 179.2755 226.20101 182.8125 230.0625 L 186 233.53125 L 190.4375 232.1875 C 192.8908 231.45582 197.55245 230.52222 200.78125 230.125 C 206.64595 229.40353 206.66485 229.41409 219.28125 217.1875 C 233.55925 203.35069 268.95445 173.22235 289.90625 157.09375 C 325.75315 129.49906 350.30445 114.41678 364.71875 111.09375 C 394.59265 104.20669 440.3471 109.99165 470.8125 124.5 C 500.9819 138.8674 503.03715 139.73685 499.40625 136.625 C 497.48125 134.9752 490.95625 130.04845 484.90625 125.6875 C 465.65525 111.81104 461.6568 106.0257 466.9375 99.75 C 471.8151 93.95324 485.78985 87.59375 493.65625 87.59375 C 495.34895 87.59375 496.50985 87.35363 496.21875 87.0625 C 495.19655 86.04028 478.62575 84.61231 449.40625 83.0625 C 433.18125 82.20193 415.2537 81.10996 409.5625 80.625 C 390.9056 79.03521 355.19615 81.54547 323.40625 86.65625 C 269.69615 95.29108 200.49375 121.72305 140.40625 156.5625 C 115.05075 171.2639 99.36055 179.86058 98.84375 179.34375 C 98.55185 179.05181 101.3841 177.11908 105.125 175.03125 C 108.8659 172.94341 121.13125 165.84664 132.40625 159.28125 C 167.56365 138.80923 191.04565 127.15577 223.40625 114.09375 C 267.12455 96.447334 299.5673 87.82442 344 82 C 367.6533 78.89945 397.46205 78.31587 430.40625 80.34375 C 441.68125 81.03778 458.7125 82.10238 468.25 82.6875 C 477.7875 83.27262 485.76785 83.57587 485.96875 83.375 C 486.16955 83.17413 478.3634 81.29512 468.625 79.21875 C 458.8867 77.14238 444.198 73.93061 436 72.0625 C 416.6557 67.65451 399.59345 66.3325 367.15625 66.75 C 352.99325 66.9323 341.40575 66.83011 341.40625 66.5 C 341.40725 65.67534 357.2905 64.60812 371.3125 64.5 L 382.90625 64.40625 L 377.90625 63.03125 C 370.83495 61.06673 353.68675 58.59375 347.09375 58.59375 C 337.36295 58.59375 311.14445 64.22238 288.40625 71.21875 C 260.67555 79.75128 219.7965 98.143694 186.125 117.21875 C 170.8276 125.88479 147.30145 141.19547 103.40625 171.03125 C 95.431249 176.45189 89.80625 179.94529 90.90625 178.8125 C 92.97855 176.67836 98.493349 172.7955 136.40625 146.8125 C 201.34245 102.30943 260.83735 74.53638 319.90625 61.125 C 329.98333 58.837042 333.20001 57.643189 330.3125 57.6875 z M 310.875 74.71875 C 312.08887 74.690834 308.63495 75.881123 300.40625 78.09375 C 280.27655 83.50647 262.78805 90.524164 241.40625 101.78125 C 235.08125 105.11122 230.35625 107.38157 230.90625 106.8125 C 232.51115 105.15196 251.11135 95.2679 260.90625 90.875 C 274.78905 84.64871 288.39785 79.79007 299.65625 77.0625 C 306.16384 75.48589 309.93088 74.740463 310.875 74.71875 z M 183.5625 168.25 C 190.25147 168.08714 193.31085 169.87624 196.53125 173.5 C 199.89485 177.28489 202.0954 181.65806 200.5625 181.53125 C 200.2015 181.50135 198.55625 179.38065 196.90625 176.8125 C 194.80145 173.53642 192.75275 171.71266 190.03125 170.6875 C 185.01435 168.79777 178.12425 169.75631 148.53125 176.53125 C 136.39465 179.30976 125.4422 181.54727 124.1875 181.5 C 122.2572 181.4273 122.36755 181.28231 124.90625 180.5 C 126.55625 179.99155 137.35625 177.35931 148.90625 174.65625 C 166.56225 170.5242 176.87353 168.41286 183.5625 168.25 z M 205.96875 197.125 C 206.09345 197.16006 206.22895 197.31942 206.40625 197.59375 C 208.05045 200.13796 207.5309 204.44469 204.9375 209.5625 C 201.0789 217.17705 194.448 227.26336 194.4375 225.53125 C 194.4375 224.6739 196.0238 221.2989 198 218.03125 C 204.0873 207.96546 205.4216 204.82361 205.4375 200.375 C 205.44575 198.02135 205.59465 197.01982 205.96875 197.125 z "
     id="path3146" />
  <path
     style="fill:none;stroke:#000000;stroke-width:1px;stroke-linecap:butt;stroke-linejoin:miter;stroke-opacity:1"
     d="M 622.33226,243.22723 z"
     id="path3615"
     inkscape:connector-curvature="0" />
</svg>
